<svg width="1058" height="208" viewBox="0 0 1058 208" fill="none" xmlns="http://www.w3.org/2000/svg">
<g clip-path="url(#clip0_602_300)">
<path d="M0 116.45C0 60.96 35.31 24.45 88.41 24.45C132.85 24.45 164.8 49.92 170.33 89.8H129.25C124 72 108.83 61.92 87.45 61.92C58.62 61.92 41.08 82.34 41.08 116.21C41.08 149.61 58.86 170.51 87.45 170.51C109.31 170.51 125.45 159.7 130.21 142.16H170.57C164.32 181.8 131.17 208 86.72 208C33.39 208 0 172.67 0 116.45Z" fill="white"/>
<path d="M273.38 208C221.97 208 186.66 170.53 186.66 116.23C186.66 61.93 222.21 24.23 273.66 24.23C325.31 24.23 360.87 61.71 360.87 116C360.87 170.29 325 208 273.38 208ZM273.86 61.7C245 61.68 227.74 82.1 227.74 116C227.74 150.12 245.04 170.54 273.86 170.54C302.45 170.54 319.75 149.64 319.75 116C319.75 82.1 302.45 61.68 273.86 61.68V61.7Z" fill="white"/>
<path d="M388 205.1V27.33H456.71C499.95 27.33 524.46 48.23 524.46 84.98C524.46 108.05 514.61 124.38 494.91 134.47L526.14 205.1H483.59L456.92 142.88H426.92V205.1H388ZM426.92 108.77H456.47C473.53 108.77 483.38 100.12 483.38 84.98C483.38 70.09 474.01 61.92 456.71 61.92H426.89L426.92 108.77Z" fill="white"/>
<path d="M537.16 27.33H677V63.33H626.52V205.1H587.61V63.36H537.16V27.33Z" fill="white"/>
<path d="M700.27 205.1V27.33H813.19V63.33H739.19V98.2H804.78V132.31H739.19V169.06H813.19V205.06L700.27 205.1Z" fill="white"/>
<path d="M833.12 27.33H879.49L894.38 50.63C900.87 60.72 907.11 71.53 915.04 86.18L950.6 27.33H996L939.79 116.21L996 205.1H949.88L938.1 186.6C929.22 172.43 923.45 161.86 914.8 146L876.6 205.1H831L890.34 116.21L833.12 27.33Z" fill="white"/>
<path d="M1014.49 0H1032V4.5H1025.7V22.2H1020.84V4.5H1014.54L1014.49 0Z" fill="white"/>
<path d="M1034.86 22.2V0H1039.57L1046.17 16.56L1052.8 0H1057.57V22.2H1052.86V17.55C1052.75 15.0475 1052.83 12.5404 1053.1 10.05L1048.39 22.2H1044L1039.32 10.05C1039.58 12.0191 1039.68 14.0052 1039.62 15.99V22.2H1034.86Z" fill="white"/>
</g>
<defs>
<clipPath id="clip0_602_300">
<rect width="1057.57" height="207.98" fill="white"/>
</clipPath>
</defs>
</svg>
