<svg xmlns="http://www.w3.org/2000/svg" viewBox="0 0 1057.57 207.98"><defs><style>.cls-1{fill:#020202;}</style></defs><g id="Layer_2" data-name="Layer 2"><g id="cortex"><g id="_02" data-name="02"><g id="logo"><path class="cls-1" d="M0,116.45c0-55.49,35.31-92,88.41-92,44.44,0,76.39,25.47,81.92,65.35H129.25C124,72,108.83,61.92,87.45,61.92c-28.83,0-46.37,20.42-46.37,54.29,0,33.4,17.78,54.3,46.37,54.3,21.86,0,38-10.81,42.76-28.35h40.36C164.32,181.8,131.17,208,86.72,208,33.39,208,0,172.67,0,116.45Z"/><path class="cls-1" d="M273.38,208c-51.41,0-86.72-37.47-86.72-91.77s35.55-92,87-92c51.65,0,87.21,37.48,87.21,91.77S325,208,273.38,208Zm.48-146.3C245,61.68,227.74,82.1,227.74,116c0,34.12,17.3,54.54,46.12,54.54,28.59,0,45.89-20.9,45.89-54.54C319.75,82.1,302.45,61.68,273.86,61.68Z"/><path class="cls-1" d="M388,205.1V27.33h68.71c43.24,0,67.75,20.9,67.75,57.65,0,23.07-9.85,39.4-29.55,49.49l31.23,70.63H483.59l-26.67-62.22h-30V205.1Zm38.92-96.33h29.55c17.06,0,26.91-8.65,26.91-23.79,0-14.89-9.37-23.06-26.67-23.06H426.89Z"/><path class="cls-1" d="M537.16,27.33H677v36H626.52V205.1H587.61V63.36H537.16Z"/><path class="cls-1" d="M700.27,205.1V27.33H813.19v36h-74V98.2h65.59v34.11H739.19v36.75h74v36Z"/><path class="cls-1" d="M833.12,27.33h46.37l14.89,23.3c6.49,10.09,12.73,20.9,20.66,35.55L950.6,27.33H996l-56.21,88.88L996,205.1H949.88L938.1,186.6c-8.88-14.17-14.65-24.74-23.3-40.6l-38.2,59.1H831l59.34-88.89Z"/><path class="cls-1" d="M1014.49,0H1032V4.5h-6.3V22.2h-4.86V4.5h-6.3Z"/><path class="cls-1" d="M1034.86,22.2V0h4.71l6.6,16.56L1052.8,0h4.77V22.2h-4.71V17.55a49.75,49.75,0,0,1,.24-7.5l-4.71,12.15H1044l-4.68-12.15a37.86,37.86,0,0,1,.3,5.94V22.2Z"/></g></g></g></g></svg>